#
#
#
#
# Cone
#
g Cone


#
# Cone_Phong[33]
#

v 1.000000 0.000000 0.000000
v 0.951057 0.000000 0.309017
v 0.809017 0.000000 0.587785
v 0.587785 0.000000 0.809017
v 0.309017 0.000000 0.951057
v 0.000000 0.000000 1.000000
v -0.309017 0.000000 0.951057
v -0.587785 0.000000 0.809017
v -0.809017 0.000000 0.587785
v -0.951057 0.000000 0.309017
v -1.000000 0.000000 0.000000
v -0.951057 0.000000 -0.309017
v -0.809017 0.000000 -0.587785
v -0.587785 0.000000 -0.809017
v -0.309017 0.000000 -0.951057
v -0.000000 0.000000 -1.000000
v 0.309017 0.000000 -0.951057
v 0.587785 0.000000 -0.809017
v 0.809017 0.000000 -0.587785
v 0.951057 0.000000 -0.309017
v 0.000000 2.039727 0.000000
v 0.000000 0.000000 0.000000
vn 0.844313 -0.535849 -0.000000
vn 0.000000 1.000000 0.000000
vn 0.802990 -0.535849 0.260907
vn 0.000000 -1.000000 0.000000
vn 0.802990 -0.535849 0.260907
vn 0.683064 -0.535849 0.496275
vn 0.802990 -0.535850 0.260907
vn 0.496275 -0.535850 0.683064
vn 0.260907 -0.535849 0.802990
vn 0.496275 -0.535850 0.683064
vn 0.000000 -0.535849 0.844314
vn 0.260907 -0.535850 0.802990
vn -0.260907 -0.535849 0.802990
vn -0.496275 -0.535850 0.683064
vn 0.000000 1.000000 -0.000000
vn -0.683064 -0.535849 0.496275
vn -0.496275 -0.535850 0.683064
vn -0.000000 1.000000 -0.000000
vn -0.802990 -0.535849 0.260907
vn -0.683064 -0.535849 0.496275
vn -0.802990 -0.535849 0.260907
vn -0.844313 -0.535849 -0.000000
vn -0.844313 -0.535849 0.000000
vn -0.802990 -0.535849 -0.260907
vn -0.802990 -0.535849 -0.260907
vn -0.000000 1.000000 0.000000
vn -0.683064 -0.535849 -0.496275
vn 0.000000 -1.000000 -0.000000
vn -0.802990 -0.535850 -0.260907
vn -0.496275 -0.535850 -0.683064
vn -0.260907 -0.535849 -0.802990
vn -0.496275 -0.535850 -0.683064
vn 0.000000 -0.535849 -0.844314
vn -0.260907 -0.535850 -0.802990
vn 0.260907 -0.535849 -0.802990
vn 0.496275 -0.535850 -0.683064
vn 0.000000 1.000000 0.000000
vn 0.683064 -0.535849 -0.496275
vn 0.496275 -0.535850 -0.683064
vn -0.000000 1.000000 -0.000000
vn 0.802990 -0.535849 -0.260907
vn 0.683064 -0.535849 -0.496275
vn 0.802990 -0.535849 -0.260907
vn 0.000000 1.000000 0.000000
vn 0.844313 -0.535849 0.000000
vt 0.000000 0.250000
vt 0.250000 0.250000
vt 0.012236 0.327254
vt 0.512236 0.172746
vt 0.750000 0.250000
vt 0.500000 0.250000
vt 0.047746 0.396946
vt 0.547746 0.103054
vt 0.103054 0.452254
vt 0.603054 0.047746
vt 0.172746 0.487764
vt 0.672746 0.012236
vt 0.250000 0.500000
vt 0.750000 0.000000
vt 0.327254 0.487764
vt 0.827254 0.012236
vt 0.396946 0.452254
vt 0.896946 0.047746
vt 0.452254 0.396946
vt 0.952254 0.103054
vt 0.487764 0.327254
vt 0.987764 0.172746
vt 1.000000 0.250000
vt 0.487764 0.172746
vt 0.987764 0.327254
vt 0.452254 0.103054
vt 0.952254 0.396946
vt 0.396946 0.047746
vt 0.896946 0.452254
vt 0.327254 0.012236
vt 0.827254 0.487764
vt 0.250000 0.000000
vt 0.750000 0.500000
vt 0.172746 0.012236
vt 0.672746 0.487764
vt 0.103054 0.047746
vt 0.603054 0.452254
vt 0.047746 0.103054
vt 0.547746 0.396946
vt 0.012236 0.172746
vt 0.512236 0.327254
f 1/1/1 21/2/2 2/3/3
f 2/4/3 22/5/4 1/6/1
f 2/3/5 21/2/2 3/7/6
f 3/8/6 22/5/4 2/4/7
f 3/7/6 21/2/2 4/9/8
f 4/10/8 22/5/4 3/8/6
f 4/9/8 21/2/2 5/11/9
f 5/12/9 22/5/4 4/10/10
f 5/11/9 21/2/2 6/13/11
f 6/14/11 22/5/4 5/12/12
f 6/13/11 21/2/2 7/15/13
f 7/16/13 22/5/4 6/14/11
f 7/15/13 21/2/2 8/17/14
f 8/18/14 22/5/4 7/16/13
f 8/17/14 21/2/15 9/19/16
f 9/20/16 22/5/4 8/18/17
f 9/19/16 21/2/18 10/21/19
f 10/22/19 22/5/4 9/20/20
f 10/21/21 21/2/2 11/6/22
f 11/23/22 22/5/4 10/22/19
f 11/6/23 21/2/2 12/24/24
f 12/25/24 22/5/4 11/23/23
f 12/24/25 21/2/26 13/26/27
f 13/27/27 22/5/28 12/25/29
f 13/26/27 21/2/2 14/28/30
f 14/29/30 22/5/4 13/27/27
f 14/28/30 21/2/18 15/30/31
f 15/31/31 22/5/4 14/29/32
f 15/30/31 21/2/2 16/32/33
f 16/33/33 22/5/4 15/31/34
f 16/32/33 21/2/2 17/34/35
f 17/35/35 22/5/4 16/33/33
f 17/34/35 21/2/15 18/36/36
f 18/37/36 22/5/4 17/35/35
f 18/36/36 21/2/37 19/38/38
f 19/39/38 22/5/4 18/37/39
f 19/38/38 21/2/40 20/40/41
f 20/41/41 22/5/28 19/39/42
f 20/40/43 21/2/44 1/1/45
f 1/6/45 22/5/4 20/41/41
